<svg width="32" height="32" viewBox="0 0 32 32" fill="none" xmlns="http://www.w3.org/2000/svg">
<path d="M8.72656 3.07915C8.72656 2.52686 9.17428 2.07915 9.72656 2.07915H19.7266C20.2788 2.07915 20.7266 2.52686 20.7266 3.07915C20.7266 3.63143 20.2788 4.07915 19.7266 4.07915H9.72656C9.17428 4.07915 8.72656 3.63143 8.72656 3.07915Z" fill="black"/>
<rect x="8.72656" y="17.75" width="12" height="6" fill="#F2F2F2"/>
<rect x="8.72656" y="10.75" width="7" height="6" fill="#F2F2F2"/>
<rect x="8.72656" y="6.75" width="12" height="3" fill="#F2F2F2"/>
<path fill-rule="evenodd" clip-rule="evenodd" d="M3.70831 4.45117C3.70831 3.07046 4.8276 1.95117 6.20831 1.95117H23.3254C24.7061 1.95117 25.8254 3.07046 25.8254 4.45117V8.5376C25.8254 8.81374 25.6016 9.0376 25.3254 9.0376C25.0493 9.0376 24.8254 8.81374 24.8254 8.5376V4.45117C24.8254 3.62274 24.1539 2.95117 23.3254 2.95117H6.20831C5.37989 2.95117 4.70831 3.62274 4.70831 4.45117V25.0084C4.70831 25.8368 5.37989 26.5084 6.20831 26.5084H13.5231C13.7992 26.5084 14.0231 26.7323 14.0231 27.0084C14.0231 27.2846 13.7992 27.5084 13.5231 27.5084H6.20831C4.8276 27.5084 3.70831 26.3891 3.70831 25.0084V4.45117Z" fill="black"/>
<path d="M16.7266 12.75C16.7266 11.6454 17.622 10.75 18.7266 10.75H26.7266C27.8311 10.75 28.7266 11.6454 28.7266 12.75V28.25C28.7266 29.3546 27.8311 30.25 26.7266 30.25H18.7266C17.622 30.25 16.7266 29.3546 16.7266 28.25V12.75Z" fill="white"/>
<path fill-rule="evenodd" clip-rule="evenodd" d="M26.7266 11.75H18.7266C18.1743 11.75 17.7266 12.1977 17.7266 12.75V28.25C17.7266 28.8023 18.1743 29.25 18.7266 29.25H26.7266C27.2788 29.25 27.7266 28.8023 27.7266 28.25V12.75C27.7266 12.1977 27.2788 11.75 26.7266 11.75ZM18.7266 10.75C17.622 10.75 16.7266 11.6454 16.7266 12.75V28.25C16.7266 29.3546 17.622 30.25 18.7266 30.25H26.7266C27.8311 30.25 28.7266 29.3546 28.7266 28.25V12.75C28.7266 11.6454 27.8311 10.75 26.7266 10.75H18.7266Z" fill="black"/>
<path d="M16.7266 25.1567H28.7266V28.25C28.7266 29.3546 27.8311 30.25 26.7266 30.25H18.7266C17.622 30.25 16.7266 29.3546 16.7266 28.25V25.1567Z" fill="#FFEE00"/>
<path fill-rule="evenodd" clip-rule="evenodd" d="M27.7266 26.1567H17.7266V28.25C17.7266 28.8023 18.1743 29.25 18.7266 29.25H26.7266C27.2788 29.25 27.7266 28.8023 27.7266 28.25V26.1567ZM16.7266 25.1567V28.25C16.7266 29.3546 17.622 30.25 18.7266 30.25H26.7266C27.8311 30.25 28.7266 29.3546 28.7266 28.25V25.1567H16.7266Z" fill="black"/>
<path d="M20.4766 12.1567C20.4766 11.7425 20.8123 11.4067 21.2266 11.4067H24.2266C24.6408 11.4067 24.9766 11.7425 24.9766 12.1567C24.9766 12.571 24.6408 12.9067 24.2266 12.9067H21.2266C20.8123 12.9067 20.4766 12.571 20.4766 12.1567Z" fill="black"/>
<path d="M19.7266 18.5C19.7266 18.0858 20.0623 17.75 20.4766 17.75C20.8908 17.75 21.2266 18.0858 21.2266 18.5C21.2266 18.9142 20.8908 19.25 20.4766 19.25C20.0623 19.25 19.7266 18.9142 19.7266 18.5Z" fill="black"/>
<path d="M19.7266 16.25C19.7266 15.8358 20.0623 15.5 20.4766 15.5C20.8908 15.5 21.2266 15.8358 21.2266 16.25C21.2266 16.6642 20.8908 17 20.4766 17C20.0623 17 19.7266 16.6642 19.7266 16.25Z" fill="black"/>
<path d="M19.7266 20.75C19.7266 20.3358 20.0623 20 20.4766 20C20.8908 20 21.2266 20.3358 21.2266 20.75C21.2266 21.1642 20.8908 21.5 20.4766 21.5C20.0623 21.5 19.7266 21.1642 19.7266 20.75Z" fill="black"/>
<path d="M21.9766 18.5C21.9766 18.0858 22.3123 17.75 22.7266 17.75C23.1408 17.75 23.4766 18.0858 23.4766 18.5C23.4766 18.9142 23.1408 19.25 22.7266 19.25C22.3123 19.25 21.9766 18.9142 21.9766 18.5Z" fill="black"/>
<path d="M21.9766 16.25C21.9766 15.8358 22.3123 15.5 22.7266 15.5C23.1408 15.5 23.4766 15.8358 23.4766 16.25C23.4766 16.6642 23.1408 17 22.7266 17C22.3123 17 21.9766 16.6642 21.9766 16.25Z" fill="black"/>
<path d="M21.9766 20.75C21.9766 20.3358 22.3123 20 22.7266 20C23.1408 20 23.4766 20.3358 23.4766 20.75C23.4766 21.1642 23.1408 21.5 22.7266 21.5C22.3123 21.5 21.9766 21.1642 21.9766 20.75Z" fill="black"/>
<path d="M21.9766 23C21.9766 22.5858 22.3123 22.25 22.7266 22.25C23.1408 22.25 23.4766 22.5858 23.4766 23C23.4766 23.4142 23.1408 23.75 22.7266 23.75C22.3123 23.75 21.9766 23.4142 21.9766 23Z" fill="black"/>
<path d="M24.2266 18.5C24.2266 18.0858 24.5623 17.75 24.9766 17.75C25.3908 17.75 25.7266 18.0858 25.7266 18.5C25.7266 18.9142 25.3908 19.25 24.9766 19.25C24.5623 19.25 24.2266 18.9142 24.2266 18.5Z" fill="black"/>
<path d="M24.2266 16.25C24.2266 15.8358 24.5623 15.5 24.9766 15.5C25.3908 15.5 25.7266 15.8358 25.7266 16.25C25.7266 16.6642 25.3908 17 24.9766 17C24.5623 17 24.2266 16.6642 24.2266 16.25Z" fill="black"/>
<path d="M24.2266 20.75C24.2266 20.3358 24.5623 20 24.9766 20C25.3908 20 25.7266 20.3358 25.7266 20.75C25.7266 21.1642 25.3908 21.5 24.9766 21.5C24.5623 21.5 24.2266 21.1642 24.2266 20.75Z" fill="black"/>
</svg>
